<?xml version="1.0" encoding="utf-8"?>
<!-- Generator: Adobe Illustrator 19.0.0, SVG Export Plug-In . SVG Version: 6.00 Build 0)  -->
<svg version="1.1" id="Layer_1" xmlns="http://www.w3.org/2000/svg" xmlns:xlink="http://www.w3.org/1999/xlink" x="0px" y="0px"
	 viewBox="334 324.5 1280 145.5" style="enable-background:new 334 324.5 1280 145.5;" xml:space="preserve">
<style type="text/css">
	.st0{fill:#FFFFFF;}
</style>
<g>
	<g>
		<g>
			<path class="st0" d="M428.5,463.6l-88-88v-45.7l87.9,87.9l88-87.9v113.5h-33.2v-34.6L428.5,463.6z M342,375l86.5,86.5l56.2-56.2
				V442h30.2V333.5L428.5,420L342,333.5V375z M373.7,443.4h-33.2v-58l33.2,33.2V443.4z M342,442h30.2v-22.8L342,389V442z"/>
		</g>
		<g>
			<path class="st0" d="M538.7,464.3v-45.7l48-48h78.8v-6.5h-82.2L567.4,380h-45.7l49-49h127.9v112.4h-33.2v-70.3l-30.7,30.7H599
				L538.7,464.3z M540.2,419.2v41.5l58.4-58.4h35.7l30.2-30.2h-77.2L540.2,419.2z M667,442h30.2V332.5H571.5l-46.1,46h41.5
				l15.9-15.9h84.3v7.9h1l-1,1V442H667z"/>
		</g>
		<g>
			<path class="st0" d="M882.1,443.4h-45.7l-23.8-23.8H769L738.4,389v54.4h-33.2v-57h119.9L882.1,443.4z M837,442h41.5l-54-54h-85.1
				l30.2,30.2h43.6L837,442z M706.6,442h30.2v-54h-30.2V442z M864.8,380h-45.7l12.6-12.6l-3.2-3.2h-62.8l-15.9,15.9h-44.6v-33.3
				h32.1l15.9-15.9h95.7l32.4,32.5L864.8,380z M822.6,378.5h41.5l15.2-15.1l-31-31h-94.5l-15.9,15.9h-31.3v30.2h42.6l15.9-15.9h64
				l4.7,4.7L822.6,378.5z"/>
		</g>
		<g>
			<path class="st0" d="M1063.4,444.5l-31.7-31.7v30.6h-112l-33.2-33.2h143.7v-6.5H887.5v-40.6l32.1-32.1h143.8v33.2H932.1l-6.5,6.5
				h137.8V444.5z M920.2,442h109.9v-30.3H890L920.2,442z M1031.7,410.7l30.2,30.2v-68.8H922.1l9.4-9.4h130.4v-30.2H920.2l-31.3,31.3
				v38.6h142.7v8.3H1031.7z"/>
		</g>
		<g>
			<path class="st0" d="M1189.8,451.4h-45.7l68.4-68.4v-18.8H1103v46.1h72.4l-33.2,33.1h-72.4v-48.6l30.7-30.7h-30.7V331h175.9v64.4
				L1189.8,451.4z M1147.6,449.9h41.5l55.1-55.1v-62.3h-172.9v30.2h30.7l1-1v1h111v20.9L1147.6,449.9z M1071.3,442h70.3l30.2-30.2
				h-70.3v-46.6l-30.2,30.2V442z"/>
		</g>
		<g>
			<path class="st0" d="M1353.7,451.4H1308l-55.9-56v-32.7h30.7l-31.7-31.7H1428v33.2h-142.7v6.5H1428v33.2h-112l-30.7-30.7v9.8
				L1353.7,451.4z M1308.7,449.9h41.5l-66.3-66.3v-11.9l-1-1h1v-6.5h-30.2v30.7L1308.7,449.9z M1316.6,402.3h109.9v-30.2h-140.1
				L1316.6,402.3z M1285.3,362.7h141.2v-30.2h-171.8l30.2,30.2C1284.9,362.7,1285.3,362.7,1285.3,362.7z M1428,443.4h-72.4
				l-33.2-33.1H1428V443.4z M1356.2,442h70.3v-30.3H1326L1356.2,442z"/>
		</g>
		<g>
			<path class="st0" d="M1610.3,443.4h-54.5L1443.3,331h45.7l71.3,71.3h16.8V331h33.2V443.4z M1556.4,442h52.5V332.5h-30.2v71.3
				h-18.9l-71.4-71.3h-41.5L1556.4,442z M1467.6,443.4h-33.2V331.9l33.2,33.2V443.4z M1435.9,442h30.2v-76.3l-30.2-30.2V442z"/>
		</g>
	</g>
</g>
</svg>
