<?xml version="1.0" encoding="utf-8"?>
<!-- Generator: Adobe Illustrator 19.0.0, SVG Export Plug-In . SVG Version: 6.00 Build 0)  -->
<svg version="1.1" id="Layer_1" xmlns="http://www.w3.org/2000/svg" xmlns:xlink="http://www.w3.org/1999/xlink" x="0px" y="0px"
	 viewBox="244 234.5 1280 145.5" style="enable-background:new 244 234.5 1280 145.5;" xml:space="preserve">
<g>
	<g>
		<g>
			<path d="M338,371.8l-88-88v-45.7l87.9,87.9l88-87.9v113.5h-33.2V317L338,371.8z M251.5,283.2l86.5,86.5l56.2-56.2v36.7h30.2
				V241.7L338,328.2l-86.5-86.5V283.2z M283.2,351.6H250v-58l33.2,33.2V351.6z M251.5,350.2h30.2v-22.8l-30.2-30.2V350.2z"/>
		</g>
		<g>
			<path d="M448.2,372.5v-45.7l48-48H575v-6.5h-82.2l-15.9,15.9h-45.7l49-49h127.9v112.4h-33.2v-70.3L544.2,312h-35.7L448.2,372.5z
				 M449.7,327.4v41.5l58.4-58.4h35.7l30.2-30.2h-77.2L449.7,327.4z M576.5,350.2h30.2V240.7H481l-46.1,46h41.5l15.9-15.9h84.3v7.9
				h1l-1,1v70.5H576.5z"/>
		</g>
		<g>
			<path d="M791.6,351.6h-45.7l-23.8-23.8h-43.6l-30.6-30.6v54.4h-33.2v-57h119.9L791.6,351.6z M746.5,350.2H788l-54-54h-85.1
				l30.2,30.2h43.6L746.5,350.2z M616.1,350.2h30.2v-54h-30.2V350.2z M774.3,288.2h-45.7l12.6-12.6l-3.2-3.2h-62.8l-15.9,15.9h-44.6
				V255h32.1l15.9-15.9h95.7l32.4,32.5L774.3,288.2z M732.1,286.7h41.5l15.2-15.1l-31-31h-94.5l-15.9,15.9h-31.3v30.2h42.6
				l15.9-15.9h64l4.7,4.7L732.1,286.7z"/>
		</g>
		<g>
			<path d="M972.9,352.7L941.2,321v30.6h-112L796,318.4h143.7v-6.5H797v-40.6l32.1-32.1h143.8v33.2H841.6l-6.5,6.5h137.8V352.7z
				 M829.7,350.2h109.9v-30.3H799.5L829.7,350.2z M941.2,318.9l30.2,30.2v-68.8H831.6l9.4-9.4h130.4v-30.2H829.7L798.4,272v38.6
				h142.7L941.2,318.9L941.2,318.9z"/>
		</g>
		<g>
			<path d="M1099.3,359.6h-45.7l68.4-68.4v-18.8h-109.5v46.1h72.4l-33.2,33.1h-72.4V303l30.7-30.7h-30.7v-33.1h175.9v64.4
				L1099.3,359.6z M1057.1,358.1h41.5l55.1-55.1v-62.3H980.8v30.2h30.7l1-1v1h111v20.9L1057.1,358.1z M980.8,350.2h70.3l30.2-30.2
				H1011v-46.6l-30.2,30.2V350.2z"/>
		</g>
		<g>
			<path d="M1263.2,359.6h-45.7l-55.9-56v-32.7h30.7l-31.7-31.7h176.9v33.2h-142.7v6.5h142.7v33.2h-112l-30.7-30.7v9.8L1263.2,359.6
				z M1218.2,358.1h41.5l-66.3-66.3v-11.9l-1-1h1v-6.5h-30.2v30.7L1218.2,358.1z M1226.1,310.5H1336v-30.2h-140.1L1226.1,310.5z
				 M1194.8,270.9H1336v-30.2h-171.8l30.2,30.2C1194.4,270.9,1194.8,270.9,1194.8,270.9z M1337.5,351.6h-72.4l-33.2-33.1h105.6
				V351.6z M1265.7,350.2h70.3v-30.3h-100.5L1265.7,350.2z"/>
		</g>
		<g>
			<path d="M1519.8,351.6h-54.5l-112.5-112.4h45.7l71.3,71.3h16.8v-71.3h33.2V351.6z M1465.9,350.2h52.5V240.7h-30.2V312h-18.9
				l-71.4-71.3h-41.5L1465.9,350.2z M1377.1,351.6h-33.2V240.1l33.2,33.2V351.6z M1345.4,350.2h30.2v-76.3l-30.2-30.2V350.2z"/>
		</g>
	</g>
</g>
</svg>
